<svg xmlns="http://www.w3.org/2000/svg" viewBox="0 0 1080 1080"><defs><style>.cls-1,.cls-7{fill:#0d305a;}.cls-2{fill:#a9eedb;}.cls-3{fill:#ed008c;}.cls-4{fill:#24e56d;}.cls-5{fill:none;}.cls-6,.cls-7{font-size:207.8px;font-family:Geometric415BT-BlackA, Geometr415 Blk BT;font-weight:800;}</style></defs><g id="Layer_2" data-name="Layer 2"><path d="M535.86,46.48c-213.25,0-386.14,172.88-386.14,386.13S322.61,818.75,535.86,818.75,922,645.87,922,432.61,749.12,46.48,535.86,46.48ZM625.5,481.92a36.12,36.12,0,0,0-70.18,0h-40a36.12,36.12,0,0,0-70.19,0H392.59l6.55,12.63h69v63.62l15.42,6.31V494.55H588.46V564a153.89,153.89,0,0,0,16.27-6.91V494.55h66.75L678,481.92ZM562.86,261.34l.77,2.07-97.07,36.15-7.74-20.77-12.14,7.52,6.52,17.54-41.78,15.56-13.57,20.52,110.69-41.25a36.11,36.11,0,1,0,30.59-11.41l50.33-18.76Z"/><path class="cls-1" d="M530,39.19c-213.25,0-386.13,172.88-386.13,386.13S316.78,811.47,530,811.47,916.17,638.59,916.17,425.32,743.29,39.19,530,39.19Zm89.64,435.44a36.12,36.12,0,0,0-70.18,0h-40a36.12,36.12,0,0,0-70.18,0H386.76l6.56,12.63h69v63.63l15.43,6.31V487.26H582.63V556.7a153.83,153.83,0,0,0,16.27-6.9V487.26h66.75l6.54-12.63ZM557,254.06l.77,2.07-97.08,36.15L453,271.51,440.85,279l6.52,17.53L405.6,312.12,392,332.65l110.69-41.26a36.11,36.11,0,1,0,30.6-11.4l50.33-18.77Z"/><path class="cls-2" d="M447.37,296.56,405.6,312.12A157.45,157.45,0,0,1,440.85,279Z"/><path class="cls-2" d="M557.81,256.13l-97.08,36.15L453,271.51a156.13,156.13,0,0,1,76.47-19.86A158.55,158.55,0,0,1,557,254.06Z"/><polygon class="cls-2" points="462.32 487.26 462.32 550.89 393.32 487.26 462.32 487.26"/><path class="cls-2" d="M582.63,487.26V556.7a157.8,157.8,0,0,1-104.88.5V487.26Z"/><path class="cls-2" d="M665.65,487.26A158,158,0,0,1,598.9,549.8V487.26Z"/><path class="cls-2" d="M686.61,408.79a156.47,156.47,0,0,1-14.42,65.84H619.67a36.12,36.12,0,0,0-70.18,0h-40a36.12,36.12,0,0,0-70.18,0H386.76a157.31,157.31,0,0,1,5.26-142l110.69-41.26a36.11,36.11,0,1,0,30.6-11.4l50.33-18.77A157.24,157.24,0,0,1,686.61,408.79Z"/><circle class="cls-1" cx="529.48" cy="408.79" r="23.84"/><circle class="cls-1" cx="618.75" cy="383.49" r="36.12"/><circle class="cls-1" cx="440.16" cy="383.49" r="36.12"/><polygon class="cls-1" points="462.32 487.26 462.32 517.23 438.55 487.26 462.32 487.26"/><path class="cls-1" d="M510.33,487.26a36.09,36.09,0,0,1-32.58,31.89V487.26Z"/><path class="cls-1" d="M582.63,487.26v32a36.11,36.11,0,0,1-33.94-32Z"/><path class="cls-1" d="M620.48,487.26a36.08,36.08,0,0,1-21.58,29.09V487.26Z"/><rect class="cls-3" x="477.75" y="487.26" width="104.88" height="204.62"/><polygon class="cls-3" points="557.81 256.13 460.73 292.28 453 271.51 443.63 246.37 540.71 210.21 557.04 254.06 557.81 256.13"/><path class="cls-4" d="M558.52,177.86h138a8.94,8.94,0,0,1,8.94,8.94v40.06a0,0,0,0,1,0,0H558.52a0,0,0,0,1,0,0v-49A0,0,0,0,1,558.52,177.86Z" transform="translate(-30.89 233.31) rotate(-20.43)"/><path class="cls-4" d="M447.37,296.56,405.6,312.12,299.74,351.55l-12.56-33.7a13,13,0,0,1,7.66-16.76l135.43-50.44L440.85,279Z"/><path class="cls-4" d="M462.32,487.26V691.89h-126A14.38,14.38,0,0,1,322,678.94l-19.1-191.68Z"/><path class="cls-4" d="M758.3,487.26,739.18,678.94a14.38,14.38,0,0,1-14.3,12.95h-126V487.26Z"/><path class="cls-3" d="M587.31,166.4a3.85,3.85,0,0,1-1,6.63L375.06,252.56a2.07,2.07,0,0,1-2.8-1.88l.48-18.93a7.64,7.64,0,0,0-1.74-4.64l-19-20.18a5.73,5.73,0,0,1,4.37-9.67L444,198.49a2.23,2.23,0,0,0,2.3-2.44l-1.06-10.32a2.36,2.36,0,0,1,1.58-2.45L492,168.64a2.47,2.47,0,0,1,2.65.7l4.16,8.76a2.84,2.84,0,0,0,4.1.19l62.51-59.17a5.57,5.57,0,0,1,9.38,4.41l.3,30a7.23,7.23,0,0,0,1.93,4.84Z"/><polyline class="cls-5" points="591.01 258.49 583.63 261.22 533.31 279.99 502.71 291.39 392.02 332.65 383.4 335.85"/><text class="cls-6" transform="translate(108.16 990.39)">Giftsloop</text><text class="cls-7" transform="translate(106.7 988.93)">Giftsloop</text></g></svg>