<svg xmlns="http://www.w3.org/2000/svg" viewBox="0 0 1080 1080"><defs><style>.cls-1{fill:#0d305a;}.cls-2{fill:#a9eedb;}.cls-3{fill:#f1d455;}.cls-4{fill:#77c4af;}.cls-5{fill:none;}</style></defs><g id="Layer_2" data-name="Layer 2"><path class="cls-1" d="M530,39.19c-213.25,0-386.13,172.88-386.13,386.13S316.78,811.47,530,811.47,916.17,638.59,916.17,425.32,743.29,39.19,530,39.19Zm89.64,435.44a36.12,36.12,0,0,0-70.18,0h-40a36.12,36.12,0,0,0-70.18,0H386.76l6.56,12.63h69v63.63l15.43,6.31V487.26H582.63V556.7a153.83,153.83,0,0,0,16.27-6.9V487.26h66.75l6.54-12.63ZM557,254.06l.77,2.07-97.08,36.15L453,271.51,440.85,279l6.52,17.53L405.6,312.12,392,332.65l110.69-41.26a36.11,36.11,0,1,0,30.6-11.4l50.33-18.77Z"/><path class="cls-2" d="M447.37,296.56,405.6,312.12A157.45,157.45,0,0,1,440.85,279Z"/><path class="cls-2" d="M557.81,256.13l-97.08,36.15L453,271.51a156.13,156.13,0,0,1,76.47-19.86A158.55,158.55,0,0,1,557,254.06Z"/><polygon class="cls-2" points="462.32 487.26 462.32 550.89 393.32 487.26 462.32 487.26"/><path class="cls-2" d="M582.63,487.26V556.7a157.8,157.8,0,0,1-104.88.5V487.26Z"/><path class="cls-2" d="M665.65,487.26A158,158,0,0,1,598.9,549.8V487.26Z"/><path class="cls-2" d="M686.61,408.79a156.47,156.47,0,0,1-14.42,65.84H619.67a36.12,36.12,0,0,0-70.18,0h-40a36.12,36.12,0,0,0-70.18,0H386.76a157.31,157.31,0,0,1,5.26-142l110.69-41.26a36.11,36.11,0,1,0,30.6-11.4l50.33-18.77A157.24,157.24,0,0,1,686.61,408.79Z"/><circle class="cls-1" cx="529.48" cy="408.79" r="23.84"/><circle class="cls-1" cx="618.75" cy="383.49" r="36.12"/><circle class="cls-1" cx="440.16" cy="383.49" r="36.12"/><polygon class="cls-1" points="462.32 487.26 462.32 517.23 438.55 487.26 462.32 487.26"/><path class="cls-1" d="M510.33,487.26a36.09,36.09,0,0,1-32.58,31.89V487.26Z"/><path class="cls-1" d="M582.63,487.26v32a36.11,36.11,0,0,1-33.94-32Z"/><path class="cls-1" d="M620.48,487.26a36.08,36.08,0,0,1-21.58,29.09V487.26Z"/><rect class="cls-3" x="477.75" y="487.26" width="104.88" height="204.62"/><polygon class="cls-3" points="557.81 256.13 460.73 292.28 453 271.51 443.63 246.37 540.71 210.21 557.04 254.06 557.81 256.13"/><path class="cls-4" d="M558.52,177.86h138a8.94,8.94,0,0,1,8.94,8.94v40.06a0,0,0,0,1,0,0H558.52a0,0,0,0,1,0,0v-49A0,0,0,0,1,558.52,177.86Z" transform="translate(-30.89 233.31) rotate(-20.43)"/><path class="cls-4" d="M447.37,296.56,405.6,312.12,299.74,351.55l-12.56-33.7a13,13,0,0,1,7.66-16.76l135.43-50.44L440.85,279Z"/><path class="cls-4" d="M462.32,487.26V691.89h-126A14.38,14.38,0,0,1,322,678.94l-19.1-191.68Z"/><path class="cls-4" d="M758.3,487.26,739.18,678.94a14.38,14.38,0,0,1-14.3,12.95h-126V487.26Z"/><path class="cls-3" d="M587.31,166.4a3.85,3.85,0,0,1-1,6.63L375.06,252.56a2.07,2.07,0,0,1-2.8-1.88l.48-18.93a7.64,7.64,0,0,0-1.74-4.64l-19-20.18a5.73,5.73,0,0,1,4.37-9.67L444,198.49a2.23,2.23,0,0,0,2.3-2.44l-1.06-10.32a2.36,2.36,0,0,1,1.58-2.45L492,168.64a2.47,2.47,0,0,1,2.65.7l4.16,8.76a2.84,2.84,0,0,0,4.1.19l62.51-59.17a5.57,5.57,0,0,1,9.38,4.41l.3,30a7.23,7.23,0,0,0,1.93,4.84Z"/><polyline class="cls-5" points="591.01 258.49 583.63 261.22 533.31 279.99 502.71 291.39 392.02 332.65 383.4 335.85"/><path class="cls-1" d="M222.78,913.54v21.71q0,18.48-5.73,30.75a38.64,38.64,0,0,1-17.2,18.36q-11.46,6.09-28.71,6.09-17.46,0-29.07-5.78a37.83,37.83,0,0,1-17.4-17.3q-5.79-11.52-5.79-28.87V895q0-18.47,5.74-30.69A38.71,38.71,0,0,1,141.81,846q11.48-6.09,28.72-6.08,14.31,0,24.66,4.87a41.61,41.61,0,0,1,16.94,14.56q6.6,9.69,9.44,24.4H205.74a51.57,51.57,0,0,0-7.36-16.85,30.09,30.09,0,0,0-11.67-10,36.91,36.91,0,0,0-16.18-3.35q-12.39,0-20.6,4.62a28.81,28.81,0,0,0-12.33,13.8q-4.11,9.18-4.11,23.08V938.5q0,12.88,4.16,21.36a27.53,27.53,0,0,0,12.54,12.73q8.37,4.26,20.95,4.26,12.27,0,20.24-4.36a27.33,27.33,0,0,0,12-13.49q4-9.13,4-23.44v-8.42H171.65v-13.6Z"/><path class="cls-1" d="M257.28,841.4h14.61V856H257.28Zm0,42.21h14.61V988.93H257.28Z"/><path class="cls-1" d="M298.27,883.61h52.67v12.58H298.27Zm11.17-14.31q0-14,6-20.95t18.22-7h17.25V855H336.12q-6.09,0-9.08,3.5t-3,10.61V988.93H309.44Z"/><path class="cls-1" d="M364.13,883.61h47.48v12.58H364.13Zm16.79,98.77Q375,975.33,375,961.53V853h14.61V961.74q0,6.79,3.05,10.45t9,3.65h9.94v13.6h-12Q386.86,989.44,380.92,982.38Z"/><path class="cls-1" d="M459.71,988.78a68.45,68.45,0,0,1-15-4.92A54.88,54.88,0,0,1,432.41,976l8.42-10.25a77.51,77.51,0,0,0,17.86,9,53.49,53.49,0,0,0,17.56,3.2q15.11,0,23.38-5.17t8.27-14.62q0-6.88-4-10.34a21.69,21.69,0,0,0-10.1-4.67,147.68,147.68,0,0,0-16.94-2c-.68-.07-1.37-.12-2.08-.15s-1.41-.09-2.08-.16a5.56,5.56,0,0,1-.82-.05,7.34,7.34,0,0,0-.81,0,97.62,97.62,0,0,1-17.45-3,23.65,23.65,0,0,1-11.72-7.61q-4.72-5.58-4.72-16.13,0-10.16,4.92-17.25t14.41-10.86q9.5-3.75,22.78-3.75a71,71,0,0,1,13.8,1.36,73.12,73.12,0,0,1,13.24,4A61,61,0,0,1,518,893.65l-8.42,10.05A70.76,70.76,0,0,0,493.9,897a54.08,54.08,0,0,0-15.22-2.38q-13.29,0-20.6,5a16,16,0,0,0-7.3,14q0,6.29,4,9.38a21.57,21.57,0,0,0,10,4.11,161.39,161.39,0,0,0,16.59,1.63,6.48,6.48,0,0,1,.86.05c.31,0,.59,0,.87,0h.6a1.81,1.81,0,0,1,.61.1,91.25,91.25,0,0,1,18.82,2.74,25.45,25.45,0,0,1,13,8.42q5.28,6.3,5.28,18.16,0,10.26-5.28,17.46t-15.42,11q-10.14,3.79-24.45,3.8A81,81,0,0,1,459.71,988.78Z"/><path class="cls-1" d="M562.39,961.23q0,6.69,3.3,10.4t9.18,3.7h9.74v13.6H572.44q-11.78,0-18.22-7.31T547.78,961V841.4h14.61Z"/><path class="cls-1" d="M624.9,985.07A35.47,35.47,0,0,1,610,969.4q-5.13-10.3-5.12-24.81V927.44q0-14.31,5.12-24.5a35.29,35.29,0,0,1,14.87-15.53q9.74-5.32,23.43-5.32t23.44,5.32a35.29,35.29,0,0,1,14.87,15.53q5.11,10.18,5.12,24.5v17.45q0,14.42-5.12,24.61a35.54,35.54,0,0,1-14.87,15.57q-9.74,5.38-23.44,5.38T624.9,985.07Zm44.69-16.59q7.56-8.37,7.56-23.59V927.44q0-15.12-7.56-23.44t-21.36-8.32q-13.69,0-21.2,8.32t-7.51,23.44v17.45q0,15.23,7.51,23.59t21.2,8.37Q662,976.85,669.59,968.48Z"/><path class="cls-1" d="M738.13,985.07a35.45,35.45,0,0,1-14.86-15.67q-5.13-10.3-5.13-24.81V927.44q0-14.31,5.13-24.5a35.27,35.27,0,0,1,14.86-15.53q9.75-5.32,23.44-5.32T785,887.41a35.27,35.27,0,0,1,14.86,15.53q5.13,10.18,5.13,24.5v17.45q0,14.42-5.13,24.61A35.52,35.52,0,0,1,785,985.07q-9.74,5.38-23.44,5.38T738.13,985.07Zm44.7-16.59q7.56-8.37,7.56-23.59V927.44q0-15.12-7.56-23.44t-21.36-8.32q-13.69,0-21.21,8.32t-7.51,23.44v17.45q0,15.23,7.51,23.59t21.21,8.37Q775.27,976.85,782.83,968.48Z"/><path class="cls-1" d="M834.42,883.61H849v148.14H834.42ZM860.2,986.24a25.53,25.53,0,0,1-12.59-13.85l1.42-22a28.72,28.72,0,0,0,3.25,13.24,26.57,26.57,0,0,0,9.34,10.3,25.45,25.45,0,0,0,14.2,4q13.18,0,20.4-7.87t7.2-22.06V925.11q0-14.52-7.2-22.48t-20.4-8a25.75,25.75,0,0,0-14.2,3.9,26.52,26.52,0,0,0-9.34,10.1,27.67,27.67,0,0,0-3.25,13l-2.13-20.3q5.49-10.25,14.56-14.76a47,47,0,0,1,21.16-4.51q11.16,0,19.13,5a31.47,31.47,0,0,1,12.12,14.66Q918,911.42,918,925v22.94q0,13.39-4.26,22.93a31.66,31.66,0,0,1-12.48,14.56q-8.22,5-19.68,5Q868.82,990.45,860.2,986.24Z"/></g></svg>